<svg xmlns="http://www.w3.org/2000/svg" xmlns:xlink="http://www.w3.org/1999/xlink" width="100" zoomAndPan="magnify" viewBox="0 0 75 74.999997" height="100" preserveAspectRatio="xMidYMid meet" version="1.0"><defs><clipPath id="cdb6378cf7"><path d="M 37.5 0 C 16.789062 0 0 16.789062 0 37.5 C 0 58.210938 16.789062 75 37.5 75 C 58.210938 75 75 58.210938 75 37.5 C 75 16.789062 58.210938 0 37.5 0 Z M 37.5 0 " clip-rule="nonzero"/></clipPath><clipPath id="24be218f68"><path d="M 15.777344 23.425781 L 59.269531 23.425781 L 59.269531 51.578125 L 15.777344 51.578125 Z M 15.777344 23.425781 " clip-rule="nonzero"/></clipPath></defs><g clip-path="url(#cdb6378cf7)"><rect x="-7.5" width="90" fill="#232323" y="-7.5" height="89.999996" fill-opacity="1"/></g><g clip-path="url(#24be218f68)"><path fill="#ebffe7" d="M 39.15625 50.792969 L 58.761719 26.949219 C 60.238281 25.15625 58.207031 22.621094 56.132812 23.671875 L 38.472656 32.644531 C 37.859375 32.957031 37.140625 32.957031 36.527344 32.644531 L 18.863281 23.671875 C 16.789062 22.621094 14.757812 25.152344 16.234375 26.949219 L 35.839844 50.792969 C 36.699219 51.835938 38.296875 51.835938 39.15625 50.792969 " fill-opacity="1" fill-rule="nonzero"/></g></svg>